<svg width="16" height="16" viewBox="0 0 16 16" fill="none" xmlns="http://www.w3.org/2000/svg">
<path d="M9.33333 7.33333C9.33333 7.7 9.03333 8 8.66667 8H2.66667C2.3 8 2 7.7 2 7.33333C2 6.96667 2.3 6.66667 2.66667 6.66667H8.66667C9.03333 6.66667 9.33333 6.96667 9.33333 7.33333ZM2 4.66667C2 5.03333 2.3 5.33333 2.66667 5.33333H8.66667C9.03333 5.33333 9.33333 5.03333 9.33333 4.66667C9.33333 4.3 9.03333 4 8.66667 4H2.66667C2.3 4 2 4.3 2 4.66667ZM6.66667 10C6.66667 9.63333 6.36667 9.33333 6 9.33333H2.66667C2.3 9.33333 2 9.63333 2 10C2 10.3667 2.3 10.6667 2.66667 10.6667H6C6.36667 10.6667 6.66667 10.3667 6.66667 10ZM12.0067 8.58L12.48 8.10667C12.74 7.84667 13.16 7.84667 13.42 8.10667L13.8933 8.58C14.1533 8.84 14.1533 9.26 13.8933 9.52L13.42 9.99333L12.0067 8.58ZM11.5333 9.05333L8.09333 12.4933C8.03333 12.5533 8 12.6333 8 12.7267V13.6667C8 13.8533 8.14667 14 8.33333 14H9.27333C9.36 14 9.44667 13.9667 9.50667 13.9L12.9467 10.46L11.5333 9.05333Z" fill="#ED145B"/>
</svg>
