<svg width="24" height="25" viewBox="0 0 24 25" fill="none" xmlns="http://www.w3.org/2000/svg">
<path d="M3 6.5C2.45 6.5 2 6.95 2 7.5V20.5C2 21.6 2.9 22.5 4 22.5H17C17.55 22.5 18 22.05 18 21.5C18 20.95 17.55 20.5 17 20.5H5C4.45 20.5 4 20.05 4 19.5V7.5C4 6.95 3.55 6.5 3 6.5ZM20 2.5H8C6.9 2.5 6 3.4 6 4.5V16.5C6 17.6 6.9 18.5 8 18.5H20C21.1 18.5 22 17.6 22 16.5V4.5C22 3.4 21.1 2.5 20 2.5ZM18 11.5H15V14.5C15 15.05 14.55 15.5 14 15.5C13.45 15.5 13 15.05 13 14.5V11.5H10C9.45 11.5 9 11.05 9 10.5C9 9.95 9.45 9.5 10 9.5H13V6.5C13 5.95 13.45 5.5 14 5.5C14.55 5.5 15 5.95 15 6.5V9.5H18C18.55 9.5 19 9.95 19 10.5C19 11.05 18.55 11.5 18 11.5Z" fill="#ED145B"/>
</svg>
